<svg width="20" height="17" viewBox="0 0 20 17" fill="none" xmlns="http://www.w3.org/2000/svg">
<path d="M18.1638 0.5C18.7338 0.5 19.1638 1 18.9338 1.93L16.1438 15.08C15.9488 16.015 15.3838 16.24 14.6038 15.805L7.94882 10.89C7.92302 10.8715 7.90199 10.8471 7.88749 10.8188C7.87298 10.7906 7.86542 10.7593 7.86542 10.7275C7.86542 10.6957 7.87298 10.6644 7.88749 10.6362C7.90199 10.6079 7.92302 10.5835 7.94882 10.565L15.6338 3.625C15.9838 3.315 15.5588 3.165 15.0988 3.445L5.45382 9.53C5.42457 9.54908 5.39136 9.56124 5.35671 9.56557C5.32206 9.56991 5.28687 9.56629 5.25382 9.555L1.15882 8.26C0.248824 7.995 0.248824 7.37 1.36382 6.925L17.7488 0.605C17.8788 0.542661 18.0199 0.506959 18.1638 0.5Z" stroke="white" stroke-linecap="round" stroke-linejoin="round"/>
</svg>
