<svg width="21" height="21" viewBox="0 0 21 21" fill="none" xmlns="http://www.w3.org/2000/svg">
<path d="M0.375969 20.192C0.316342 20.1922 0.257537 20.1781 0.204434 20.151C0.151332 20.1238 0.105462 20.0844 0.0706309 20.036C0.0357999 19.9877 0.0130119 19.9316 0.00415753 19.8727C-0.0046968 19.8137 0.000637977 19.7535 0.019719 19.697L1.50097 15.3395C0.335616 13.4008 -0.149637 11.1288 0.122062 8.88317C0.393762 6.63757 1.40688 4.5468 3.00097 2.942C4.89354 1.05782 7.45539 0 10.126 0C12.7965 0 15.3584 1.05782 17.251 2.942C18.9193 4.63432 19.9376 6.86059 20.127 9.22943C20.3163 11.5983 19.6645 13.958 18.2862 15.8939C16.9079 17.8297 14.8912 19.2177 12.5908 19.8138C10.2904 20.4099 7.85349 20.176 5.70847 19.1532L0.450969 20.192H0.375969ZM5.75722 18.3732C5.81592 18.3736 5.87372 18.3877 5.92597 18.4145C7.90997 19.4041 10.181 19.6567 12.334 19.1272C14.4869 18.5977 16.3818 17.3206 17.6805 15.5237C18.9792 13.7268 19.5973 11.5269 19.4245 9.31654C19.2517 7.10617 18.2994 5.02906 16.7372 3.45575C15.8691 2.58743 14.8384 1.89863 13.704 1.42869C12.5697 0.958752 11.3538 0.716875 10.126 0.716875C8.89811 0.716875 7.68228 0.958752 6.54791 1.42869C5.41354 1.89863 4.38286 2.58743 3.51472 3.45575C2.02111 4.965 1.08217 6.93527 0.850677 9.04598C0.619179 11.1567 1.10874 13.2836 2.23972 15.0807C2.26974 15.1283 2.28869 15.1819 2.29518 15.2377C2.30167 15.2935 2.29553 15.3501 2.27722 15.4032L0.942219 19.337L5.68972 18.392L5.75722 18.3732Z" fill="white"/>
<path d="M12.8148 15.3169C12.6999 15.3232 12.5847 15.3232 12.4698 15.3169C10.4786 15.0994 7.96982 13.1306 7.26107 12.4369C6.56732 11.7431 4.59482 9.21939 4.38107 7.22814C4.20857 5.63814 5.26982 4.55814 5.73482 4.16439C5.94275 3.98578 6.21099 3.89324 6.48482 3.90564L7.49732 3.93939C7.57137 3.94214 7.64294 3.96675 7.703 4.01013C7.76307 4.05351 7.80894 4.11372 7.83482 4.18314C8.05982 4.77939 8.78732 6.76314 8.78732 7.27689C8.78732 7.72689 8.38982 8.07564 8.03732 8.38314C7.96232 8.44689 7.86107 8.53689 7.80107 8.60065C8.18008 9.29329 8.63406 9.94218 9.15482 10.5356C9.74834 11.0563 10.3972 11.5103 11.0898 11.8894C11.1536 11.8256 11.2436 11.7244 11.3073 11.6531C11.6148 11.3006 11.9636 10.9031 12.4323 10.9031C12.9461 10.9031 14.9298 11.6306 15.5261 11.8556C15.5955 11.8815 15.6557 11.9274 15.6991 11.9875C15.7425 12.0475 15.7671 12.1191 15.7698 12.1931L15.8036 13.2056C15.8113 13.4788 15.7193 13.7454 15.5448 13.9556C15.2135 14.3644 14.7983 14.6974 14.3274 14.9323C13.8565 15.1671 13.3407 15.2982 12.8148 15.3169ZM7.79357 11.8969C8.41232 12.5156 10.7936 14.3719 12.5523 14.5631C13.7861 14.6944 14.6486 13.8431 14.9636 13.4719C15.0198 13.4019 15.0491 13.3141 15.0461 13.2244L15.0198 12.4744C14.1769 12.1363 13.3093 11.8631 12.4248 11.6569C12.3048 11.6569 12.0086 12.0056 11.8811 12.1519C11.6261 12.4444 11.4236 12.6731 11.1311 12.6731C10.6548 12.6731 8.99357 11.4431 8.62232 11.0719C8.25107 10.7006 7.03232 9.02814 7.03232 8.56689C7.03232 8.28564 7.26107 8.08314 7.55357 7.81689C7.69607 7.68939 8.03732 7.39689 8.04857 7.27314C7.84235 6.38864 7.56906 5.52114 7.23107 4.67814L6.48107 4.65189C6.39136 4.64889 6.30354 4.67816 6.23357 4.7344C5.85857 5.0494 5.00732 5.9119 5.14232 7.1419C5.33357 8.91189 7.18982 11.2669 7.80857 11.9006L7.79357 11.8969Z" fill="white"/>
</svg>
