<?xml version="1.0" encoding="utf-8"?>
<!-- Generator: Adobe Illustrator 26.0.3, SVG Export Plug-In . SVG Version: 6.00 Build 0)  -->
<svg version="1.1" id="Слой_1" xmlns="http://www.w3.org/2000/svg" xmlns:xlink="http://www.w3.org/1999/xlink" x="0px" y="0px"
	 viewBox="0 0 113.4 17.3" style="enable-background:new 0 0 113.4 17.3;" xml:space="preserve">
<style type="text/css">
	.st0{fill-rule:evenodd;clip-rule:evenodd;fill:#808080;}
	.st1{clip-path:url(#SVGID_00000010277207168090252390000016779945327876389304_);}
	.st2{fill:#808080;}
</style>
<polygon class="st0" points="96,17.3 99.2,17.3 104.7,6.4 110.1,17.3 113.4,17.3 104.7,0 "/>
<polygon class="st0" points="70.3,0 70.3,17.3 73.5,17.3 73.5,6.6 79,10.9 84.5,6.6 84.5,17.3 87.7,17.3 87.7,0 79,6.9 "/>
<g>
	<defs>
		<rect id="SVGID_1_" x="-56.7" y="-104.8" width="226.8" height="226.8"/>
	</defs>
	<clipPath id="SVGID_00000029755310289970830360000010693028502406384259_">
		<use xlink:href="#SVGID_1_"  style="overflow:visible;"/>
	</clipPath>
	<g style="clip-path:url(#SVGID_00000029755310289970830360000010693028502406384259_);">
		<path class="st0" d="M44.2,2.6c-3.3,3.3-3.4,8.7-0.1,12.1c0,0,0,0,0.1,0.1c1.6,1.6,3.8,2.5,6.1,2.5H58V7.8h-7.7v3.2h4.5v3.2h-4.5
			c-1.4,0-2.8-0.6-3.8-1.6c-2.1-2.1-2.1-5.5-0.1-7.6c0,0,0,0,0.1-0.1c1-1,2.4-1.6,3.8-1.6H58V0.1h-7.7C48,0.1,45.8,1,44.2,2.6"/>
		<rect x="27.4" class="st2" width="3.2" height="17.3"/>
		<path class="st0" d="M7.7,0.1H0v17.1h7.7c2.3,0,4.5-0.9,6.1-2.5c3.3-3.3,3.4-8.7,0.1-12.1c0,0,0,0-0.1-0.1C12.2,1,10,0.1,7.7,0.1
			 M11.6,12.5c-1,1-2.4,1.6-3.9,1.6H3.2V3.3h4.5c1.4,0,2.8,0.6,3.9,1.6C13.7,7,13.7,10.4,11.6,12.5C11.6,12.5,11.6,12.5,11.6,12.5"
			/>
	</g>
</g>
</svg>
